<?xml version="1.0" encoding="UTF-8" standalone="no"?>
<!-- Created with Inkscape (http://www.inkscape.org/) -->

<svg
   width="123.28124mm"
   height="123.28124mm"
   viewBox="0 0 123.28124 123.28124"
   version="1.1"
   id="svg1"
   xml:space="preserve"
   inkscape:version="1.3.2 (091e20e, 2023-11-25)"
   sodipodi:docname="sparrow_new.svg"
   inkscape:export-filename="../../Documents/Dev/MoinoBudget/icon.svg"
   inkscape:export-xdpi="96"
   inkscape:export-ydpi="96"
   xmlns:inkscape="http://www.inkscape.org/namespaces/inkscape"
   xmlns:sodipodi="http://sodipodi.sourceforge.net/DTD/sodipodi-0.dtd"
   xmlns="http://www.w3.org/2000/svg"
   xmlns:svg="http://www.w3.org/2000/svg"><sodipodi:namedview
     id="namedview1"
     pagecolor="#ffffff"
     bordercolor="#000000"
     borderopacity="0.25"
     inkscape:showpageshadow="2"
     inkscape:pageopacity="0.0"
     inkscape:pagecheckerboard="0"
     inkscape:deskcolor="#d1d1d1"
     inkscape:document-units="mm"
     inkscape:zoom="1.142208"
     inkscape:cx="167.21998"
     inkscape:cy="240.76175"
     inkscape:window-width="1472"
     inkscape:window-height="835"
     inkscape:window-x="0"
     inkscape:window-y="34"
     inkscape:window-maximized="0"
     inkscape:current-layer="layer3" /><defs
     id="defs1" /><g
     inkscape:groupmode="layer"
     id="layer3"
     inkscape:label="Calque 3"
     style="display:inline"
     transform="translate(25.089603,30.566666)"><path
       style="display:inline;fill:#000000;stroke-width:0.264583"
       d="m 38.399623,47.385415 c -1.053221,-0.15851 -2.106443,-0.145924 -3.159664,0.285676 -2.136997,0.609665 -6.603437,0.741678 -10.02431,0.06747 C 21.554747,46.856963 17.186128,45.340906 14.055027,43.327409 10.62061,41.34891 6.6061582,36.116561 4.4929515,31.760394 3.570351,29.67246 2.8859775,27.974965 3.0803829,24.10898 4.1171819,20.504884 5.7803051,16.521385 4.6156884,12.895196 3.1915812,11.411344 2.3395069,10.545223 2.1825803,9.8695482 1.9329738,8.9364772 2.0322002,8.5956572 2.1436932,7.7324202 L -3.5799775,5.4390995 2.0892764,2.086233 C 2.6032397,1.4962632 2.2891334,1.4168748 2.6325346,0.87037741 4.6852501,-2.2382388 6.6736812,-3.5577379 11.560818,-3.8201997 c 5.35451,0.2009837 5.989522,1.2931677 10.358837,4.23770611 3.699614,3.48848819 6.340711,7.67624779 8.593127,12.12454759 3.064628,7.336298 7.290228,13.456262 12.111617,19.532483 3.298835,3.709114 6.407917,7.009144 9.430054,10.484601 2.121949,3.242012 5.450224,6.312277 9.108506,9.495127 l 4.823609,3.848237 c 0.248942,0.503079 4.862272,3.796663 5.934298,4.311846 0.302107,0.03235 1.493051,0.852975 1.322119,1.649895 -0.153711,0.499512 -0.703858,0.378678 -1.091479,0.17133 -1.048665,-0.680678 -1.809342,-0.983925 -2.910799,-0.642185 -0.716141,0.209524 -0.965828,0.826425 -1.177142,1.530284 0.02117,0.121781 0.06685,1.675647 -0.720425,1.732025 -0.336195,-0.04415 -1.048487,-0.919848 -1.242107,-1.225384 -0.288609,-0.446474 -1.613342,-2.034498 -2.661075,-3.08678 -1.460382,-1.526186 -3.251007,-3.166652 -4.755487,-4.671074 -3.790632,-3.974768 -8.224217,-6.539673 -10.589803,-7.488182 -0.676286,-0.273464 -3.428807,-1.133871 -4.162484,-1.034291 l 1.294855,2.001139 c 0.39626,0.784903 0.470267,1.292758 0.02215,1.774621 -0.406772,0.358841 -1.022251,0.367026 -1.552436,0.1088 -0.400624,-0.278943 -1.00999,-0.637924 -1.377008,-1.219321 -0.531917,-0.509919 -0.773973,-0.97901 -1.504984,-1.537733 -0.677376,-0.472387 -1.548511,-0.80618 -2.41514,-0.892082 z"
       id="path3"
       sodipodi:nodetypes="ccccccccccccccccccccccccccccccccccccc"
       inkscape:label="path3" /><rect
       style="fill:#000000;stroke-width:0.271885"
       id="rect4"
       width="38.595116"
       height="1.9987477"
       x="17.739029"
       y="49.466602"
       ry="0.99937385"
       transform="matrix(0.98941328,0.14512534,-0.25135263,0.96789558,0,0)" /><rect
       style="fill:#000000;stroke-width:0.264583"
       id="rect5"
       width="1.308887"
       height="8.6386538"
       x="21.061829"
       y="44.883575"
       ry="0.6544435" /><rect
       style="fill:#000000;stroke-width:0.264583"
       id="rect6"
       width="1.308887"
       height="8.6386538"
       x="26.166489"
       y="46.192463"
       ry="0.6544435" /></g></svg>
